<?xml version="1.0" encoding="UTF-8"?>
<svg version="1.1" xmlns="http://www.w3.org/2000/svg" width="512" height="512">
<path d="M0 0 C168.96 0 337.92 0 512 0 C512 168.96 512 337.92 512 512 C343.04 512 174.08 512 0 512 C0 343.04 0 174.08 0 0 Z " fill="#DBD9C6" transform="translate(0,0)"/>
<path d="M0 0 C6.53292586 4.49258391 12.53635339 9.65373577 18.4375 14.9375 C19.64466675 16.01221558 19.64466675 16.01221558 20.8762207 17.10864258 C29.64617532 25.02424805 37.99788798 33.34538033 46.33911133 41.70874023 C48.75944526 44.1344663 51.1851222 46.55475798 53.61132812 48.97460938 C55.17480012 50.53874175 56.73796212 52.10318406 58.30078125 53.66796875 C59.01446365 54.37962692 59.72814606 55.0912851 60.4634552 55.82450867 C64.44583755 59.82531122 68.25660667 63.9215561 71.93519592 68.20394897 C74.0688005 70.66597545 76.32139342 73.0109487 78.5625 75.375 C85.4387819 82.76891683 91.45428599 90.81650673 97.4375 98.9375 C98.43523437 100.27361328 98.43523437 100.27361328 99.453125 101.63671875 C102.7347714 106.25256988 104.73302234 110.87575378 106.48046875 116.26171875 C107.40907509 119.03688519 107.40907509 119.03688519 108.9453125 121.8984375 C113.39524448 130.96138796 113.73406399 140.83774812 113.8125 150.75 C113.82627686 151.71607178 113.84005371 152.68214355 113.85424805 153.67749023 C113.81347216 160.00645104 112.71809279 165.0633947 110.4375 170.9375 C110.06109375 172.12214844 109.6846875 173.30679688 109.296875 174.52734375 C106.70742414 182.34128524 103.61862632 188.54816985 98.4375 194.9375 C97.86515625 195.68386719 97.2928125 196.43023437 96.703125 197.19921875 C85.87886359 210.45200035 67.67169228 221.16664722 50.4375 222.9375 C49.60089844 223.0303125 48.76429688 223.123125 47.90234375 223.21875 C34.83934815 223.93748428 21.95287626 219.42096311 10.41601562 213.68115234 C-12.37232726 202.64192077 -32.67239992 201.26788594 -56.5625 208.9375 C-61.79752736 210.79831962 -66.75594138 213.06407202 -71.75390625 215.48046875 C-90.10582108 224.25558741 -107.36070156 225.48022052 -126.6796875 218.87109375 C-144.86315087 211.86143802 -158.89648613 197.229541 -167.5625 179.9375 C-168.60248736 177.26785869 -169.44230373 174.56022558 -170.25 171.8125 C-170.46205078 171.12285156 -170.67410156 170.43320312 -170.89257812 169.72265625 C-175.96409644 152.98824565 -175.71651649 133.94607788 -168.5625 117.9375 C-168.13195312 116.83019531 -167.70140625 115.72289062 -167.2578125 114.58203125 C-161.83241325 100.74894806 -151.89571854 89.35349994 -142.5625 77.9375 C-141.98113281 77.21949219 -141.39976562 76.50148438 -140.80078125 75.76171875 C-139.43599244 74.11273663 -138.00578149 72.51823687 -136.5625 70.9375 C-135.9025 70.9375 -135.2425 70.9375 -134.5625 70.9375 C-134.28680176 70.3403418 -134.01110352 69.74318359 -133.72705078 69.12792969 C-132.62027966 67.04617905 -131.53247184 65.60166807 -129.9296875 63.890625 C-129.38280273 63.30482666 -128.83591797 62.71902832 -128.27246094 62.11547852 C-127.66692383 61.47924561 -127.06138672 60.8430127 -126.4375 60.1875 C-125.47505371 59.17030884 -125.47505371 59.17030884 -124.49316406 58.13256836 C-118.6930659 52.04595447 -112.80308646 46.04640872 -106.87994385 40.07971191 C-105.85021408 39.04192266 -104.82196751 38.00265922 -103.79534912 36.96179199 C-97.7888727 30.8808216 -91.62285378 25.18793453 -84.93359375 19.84741211 C-82.21523025 17.65777479 -79.70844939 15.34957118 -77.1875 12.9375 C-55.91593907 -6.59947013 -26.56142328 -15.7850744 0 0 Z " fill="#FDD2BC" transform="translate(286.5625,243.0625)"/>
<path d="M0 0 C0.9485083 0.00845947 1.8970166 0.01691895 2.87426758 0.02563477 C13.08390822 0.27722979 22.8827728 2.27342427 32.5625 5.5 C32.5625 6.16 32.5625 6.82 32.5625 7.5 C33.58085937 7.73847656 34.59921875 7.97695312 35.6484375 8.22265625 C39.68347134 9.38290581 42.84893341 11.44104227 46.1875 13.9375 C46.78578613 14.37562012 47.38407227 14.81374023 48.00048828 15.26513672 C56.73058645 21.74334195 65.05442876 28.71799524 72.60816956 36.54612732 C74.45274204 38.39026775 76.35323576 40.09181523 78.33569336 41.78540039 C82.34440569 45.26787517 86.1313594 48.92370884 89.87890625 52.68359375 C90.53906235 53.34279312 91.19921844 54.00199249 91.87937927 54.6811676 C93.26285506 56.06396835 94.64509083 57.44801076 96.02612305 58.83325195 C98.11981669 60.93230343 100.21879874 63.0259594 102.31835938 65.11914062 C103.67219571 66.47363786 105.02572175 67.82844531 106.37890625 69.18359375 C106.99576797 69.79843124 107.6126297 70.41326874 108.2481842 71.04673767 C112.5489214 75.37028619 116.58801359 79.87629254 120.5625 84.5 C121.54745396 85.62953722 122.53300977 86.75855032 123.51953125 87.88671875 C149.10982335 117.38718985 149.10982335 117.38718985 154.5625 131.5 C155.20509418 132.91813887 155.85129589 134.33464558 156.5 135.75 C167.42098235 160.50422666 167.09962284 185.42365361 157.734375 210.57714844 C151.34960118 226.50183846 141.33731005 239.24944691 127.5625 249.5 C126.84578125 250.04269531 126.1290625 250.58539063 125.390625 251.14453125 C108.30533159 263.31619704 86.25488758 270.14699894 65.328125 267.18359375 C57.45815348 265.76644853 50.23384096 263.73788666 43.20703125 259.859375 C23.64252075 249.80258083 3.27640747 246.65762672 -17.98828125 252.703125 C-22.46746018 254.16046551 -26.75634471 256.03743873 -31.0625 257.9375 C-31.95493408 258.33114746 -32.84736816 258.72479492 -33.7668457 259.13037109 C-35.0830188 259.71165771 -35.0830188 259.71165771 -36.42578125 260.3046875 C-54.37040969 268.20560483 -73.59830072 271.03857576 -92.71484375 264.9609375 C-104.09764063 260.49381679 -115.27729347 255.77982054 -124.4375 247.5 C-125.46875 246.695625 -126.5 245.89125 -127.5625 245.0625 C-131.22195902 241.80080827 -134.3556818 238.30655347 -137.4375 234.5 C-137.99308594 233.81679688 -138.54867187 233.13359375 -139.12109375 232.4296875 C-155.35462598 210.90994731 -161.19790183 185.25542152 -158.11669922 158.73925781 C-154.79349163 137.96012504 -143.99664279 119.37479887 -130.4375 103.5 C-130.00469727 102.99194824 -129.57189453 102.48389648 -129.12597656 101.96044922 C-127.08640508 99.5686872 -125.04283614 97.18059104 -122.98706055 94.80273438 C-119.83350488 91.15358473 -116.765336 87.4527094 -113.75 83.6875 C-110.32858627 79.46796263 -106.69909787 75.61597191 -102.7734375 71.86328125 C-100.80400728 69.8707975 -98.99523606 67.8411167 -97.17578125 65.71484375 C-93.45773229 61.42903597 -89.42101561 57.58927902 -85.25 53.75 C-80.03177632 48.89904133 -74.87789446 44.01054755 -69.875 38.9375 C-61.8336682 30.82433496 -53.15155331 23.72648204 -44.09912109 16.78076172 C-42.64544192 15.66027965 -41.20621357 14.52110025 -39.76953125 13.37890625 C-34.40129928 9.30675639 -29.33086243 7.20618162 -22.80859375 5.51953125 C-20.01161405 4.67363125 -17.78055011 3.70461633 -15.1875 2.41796875 C-10.08772353 0.10134936 -5.54251903 -0.11129556 0 0 Z M-41.4375 37.5 C-41.96359863 37.94118164 -42.48969727 38.38236328 -43.03173828 38.83691406 C-56.38458817 50.0574723 -68.96877755 61.94057743 -81.3125 74.25 C-82.13193588 75.06541763 -82.13193588 75.06541763 -82.96792603 75.89730835 C-93.92762279 85.56692487 -93.92762279 85.56692487 -101.4375 97.5 C-102.4275 97.83 -103.4175 98.16 -104.4375 98.5 C-112.01644501 105.87690174 -118.12925572 115.045652 -124.4375 123.5 C-125.08460938 124.36109375 -125.73171875 125.2221875 -126.3984375 126.109375 C-130.85830246 132.38622197 -133.64913538 139.35677378 -136.4375 146.5 C-136.85515625 147.44875 -137.2728125 148.3975 -137.703125 149.375 C-140.65967845 157.03705402 -140.82105379 164.41547377 -140.875 172.5625 C-140.88515137 173.65079102 -140.89530273 174.73908203 -140.90576172 175.86035156 C-140.66833609 198.03122359 -130.54708784 216.05970159 -115.5625 231.75 C-102.61670626 244.28450529 -84.95036639 249.79742596 -67.17626953 249.81469727 C-55.38690871 249.60260423 -45.37834576 245.20356128 -34.94921875 240.16796875 C-9.92072341 228.28012947 11.61290913 228.15314794 37.46191406 237.26611328 C41.70129621 238.95318709 45.69055872 241.04221617 49.74072266 243.13525391 C53.73975144 245.06937494 57.76046405 246.31148299 62.0625 247.375 C62.87855713 247.58060547 63.69461426 247.78621094 64.53540039 247.99804688 C80.70022319 251.8478039 94.94294657 247.96136195 109.5625 240.5 C113.44468912 238.07111743 117.01659229 235.39372376 120.5625 232.5 C121.36558594 231.860625 122.16867187 231.22125 122.99609375 230.5625 C135.05804796 220.47358046 141.13108081 207.48571021 144.765625 192.52734375 C145.5625 189.5 145.5625 189.5 146.5625 188.5 C148.04125181 172.16642137 146.90845127 155.09346786 138.7109375 140.578125 C137.5625 138.5 137.5625 138.5 136.62109375 136.06640625 C130.64318168 121.57382977 117.53820714 108.47037092 106.9765625 97.125 C105.10690267 95.09197183 103.30178679 93.03448965 101.50439453 90.93920898 C97.22529468 86.04406194 92.67115015 81.44670835 88.078125 76.84765625 C87.18188416 75.94808701 86.28564331 75.04851776 85.36224365 74.12168884 C83.47423948 72.22864646 81.58515556 70.33675586 79.69433594 68.4465332 C77.30155384 66.05385247 74.91572036 63.65437235 72.53162003 61.25304508 C70.21837128 58.92583861 67.89777119 56.60598337 65.578125 54.28515625 C64.73815979 53.43800552 63.89819458 52.5908548 63.03277588 51.71803284 C57.18469108 45.89195851 51.01462258 40.6426355 44.5625 35.5 C42.81184096 34.06330268 41.06175049 32.62591197 39.3125 31.1875 C27.62340916 21.96407676 16.10019854 19.14962098 1.375 19 C0.37799072 18.98163086 -0.61901855 18.96326172 -1.64624023 18.94433594 C-17.54891862 19.07553533 -29.68218289 27.59552005 -41.4375 37.5 Z " fill="#2D373C" transform="translate(253.4375,216.5)"/>
<path d="M0 0 C6.53292586 4.49258391 12.53635339 9.65373577 18.4375 14.9375 C19.64466675 16.01221558 19.64466675 16.01221558 20.8762207 17.10864258 C29.64617532 25.02424805 37.99788798 33.34538033 46.33911133 41.70874023 C48.75944526 44.1344663 51.1851222 46.55475798 53.61132812 48.97460938 C55.17480012 50.53874175 56.73796212 52.10318406 58.30078125 53.66796875 C59.01446365 54.37962692 59.72814606 55.0912851 60.4634552 55.82450867 C64.44583755 59.82531122 68.25660667 63.9215561 71.93519592 68.20394897 C74.0688005 70.66597545 76.32139342 73.0109487 78.5625 75.375 C85.4387819 82.76891683 91.45428599 90.81650673 97.4375 98.9375 C98.43523437 100.27361328 98.43523437 100.27361328 99.453125 101.63671875 C102.7347714 106.25256988 104.73302234 110.87575378 106.48046875 116.26171875 C107.40907509 119.03688519 107.40907509 119.03688519 108.9453125 121.8984375 C113.39524448 130.96138796 113.73406399 140.83774812 113.8125 150.75 C113.82627686 151.71607178 113.84005371 152.68214355 113.85424805 153.67749023 C113.81347216 160.00645104 112.71809279 165.0633947 110.4375 170.9375 C110.06109375 172.12214844 109.6846875 173.30679688 109.296875 174.52734375 C106.70742414 182.34128524 103.61862632 188.54816985 98.4375 194.9375 C97.86515625 195.68386719 97.2928125 196.43023437 96.703125 197.19921875 C85.87886359 210.45200035 67.67169228 221.16664722 50.4375 222.9375 C49.60089844 223.0303125 48.76429688 223.123125 47.90234375 223.21875 C34.83934815 223.93748428 21.95287626 219.42096311 10.41601562 213.68115234 C-12.37232726 202.64192077 -32.67239992 201.26788594 -56.5625 208.9375 C-61.79752736 210.79831962 -66.75594138 213.06407202 -71.75390625 215.48046875 C-90.10582108 224.25558741 -107.36070156 225.48022052 -126.6796875 218.87109375 C-144.86315087 211.86143802 -158.89648613 197.229541 -167.5625 179.9375 C-168.60248736 177.26785869 -169.44230373 174.56022558 -170.25 171.8125 C-170.46205078 171.12285156 -170.67410156 170.43320312 -170.89257812 169.72265625 C-175.96409644 152.98824565 -175.71651649 133.94607788 -168.5625 117.9375 C-168.13195312 116.83019531 -167.70140625 115.72289062 -167.2578125 114.58203125 C-161.83241325 100.74894806 -151.89571854 89.35349994 -142.5625 77.9375 C-141.98113281 77.21949219 -141.39976562 76.50148438 -140.80078125 75.76171875 C-139.43599244 74.11273663 -138.00578149 72.51823687 -136.5625 70.9375 C-135.9025 70.9375 -135.2425 70.9375 -134.5625 70.9375 C-134.28680176 70.3403418 -134.01110352 69.74318359 -133.72705078 69.12792969 C-132.62027966 67.04617905 -131.53247184 65.60166807 -129.9296875 63.890625 C-129.38280273 63.30482666 -128.83591797 62.71902832 -128.27246094 62.11547852 C-127.66692383 61.47924561 -127.06138672 60.8430127 -126.4375 60.1875 C-125.47505371 59.17030884 -125.47505371 59.17030884 -124.49316406 58.13256836 C-118.6930659 52.04595447 -112.80308646 46.04640872 -106.87994385 40.07971191 C-105.85021408 39.04192266 -104.82196751 38.00265922 -103.79534912 36.96179199 C-97.7888727 30.8808216 -91.62285378 25.18793453 -84.93359375 19.84741211 C-82.21523025 17.65777479 -79.70844939 15.34957118 -77.1875 12.9375 C-55.91593907 -6.59947013 -26.56142328 -15.7850744 0 0 Z M-50.5625 19.9375 C-50.5625 20.5975 -50.5625 21.2575 -50.5625 21.9375 C-51.284375 22.03289062 -52.00625 22.12828125 -52.75 22.2265625 C-67.48912012 25.95228453 -82.39685598 44.44247959 -92.86621094 54.98046875 C-94.81744721 56.94247452 -96.77922208 58.8934867 -98.7421875 60.84375 C-105.10002994 67.19562532 -111.11462172 73.59175981 -116.69824219 80.64111328 C-119.9307453 84.62290011 -123.64724209 88.01186095 -127.375 91.52734375 C-129.54694115 93.92035748 -129.91504078 94.922768 -130.5625 97.9375 C-132.0475 98.4325 -132.0475 98.4325 -133.5625 98.9375 C-135.7944163 101.26671097 -137.64070196 103.91207147 -139.5625 106.5 C-140.09617187 107.19158203 -140.62984375 107.88316406 -141.1796875 108.59570312 C-144.64857675 113.22520333 -146.73294388 117.45456693 -148.5625 122.9375 C-149.19135433 124.34106461 -149.83399399 125.73867847 -150.5 127.125 C-157.87339667 143.80766581 -158.80138227 159.82671933 -152.5625 176.9375 C-150.59708828 180.63919514 -148.24744883 183.73135522 -145.5625 186.9375 C-144.82257813 187.89785156 -144.08265625 188.85820312 -143.3203125 189.84765625 C-137.81535334 196.90500216 -137.81535334 196.90500216 -130.5625 201.9375 C-129.9025 201.9375 -129.2425 201.9375 -128.5625 201.9375 C-128.5625 202.5975 -128.5625 203.2575 -128.5625 203.9375 C-122.75628488 206.70236434 -116.76930931 208.37176482 -110.57421875 210.0703125 C-107.5625 210.9375 -107.5625 210.9375 -105.5625 211.9375 C-96.62411958 211.88763456 -86.98788809 211.08190321 -78.5625 207.9375 C-78.2325 206.9475 -77.9025 205.9575 -77.5625 204.9375 C-75.58429902 204.20868911 -73.57595199 203.56236441 -71.5625 202.9375 C-68.80285524 201.71736033 -66.07313051 200.44250978 -63.34375 199.15625 C-56.30231474 196.07067724 -49.86577313 195.35616549 -42.25 194.8125 C-41.16009766 194.72613281 -40.07019531 194.63976562 -38.94726562 194.55078125 C-29.00481697 193.79747486 -18.99441607 193.05348137 -9.30859375 195.890625 C-4.8308249 197.14197229 -0.32436623 197.92447958 4.27148438 198.6171875 C6.20703125 198.9609375 6.20703125 198.9609375 9.4375 199.9375 C10.12301024 201.26124391 10.78948656 202.59500203 11.4375 203.9375 C26.91678979 210.12113274 47.24702381 211.88404889 63.4375 207.9375 C66.16087154 206.51141385 66.16087154 206.51141385 68.4375 204.9375 C69.8296875 204.31875 69.8296875 204.31875 71.25 203.6875 C78.12188652 199.91469956 82.77425298 195.28253592 86.234375 188.24609375 C87.4375 185.9375 87.4375 185.9375 89.40625 183.18359375 C97.70809767 169.91660257 98.20513563 152.97284125 94.88232422 138.13818359 C93.20074719 131.12230662 91.2480777 125.16114208 87.56884766 118.91503906 C86.4375 116.9375 86.4375 116.9375 85.37890625 114.23046875 C81.62579312 105.08906871 73.06001527 97.06695047 66.4375 89.9375 C65.49110138 88.90072999 64.54583852 87.86292237 63.6015625 86.82421875 C59.30028316 82.10068404 54.9654653 77.44572371 50.4375 72.9375 C30.4375 52.9375 30.4375 52.9375 27.76855469 50.26635742 C26.33561499 48.83476842 24.89813257 47.40768829 23.453125 45.98828125 C22.87046875 45.41464844 22.2878125 44.84101563 21.6875 44.25 C21.09453125 43.66863281 20.5015625 43.08726562 19.890625 42.48828125 C18.4375 40.9375 18.4375 40.9375 17.4375 38.9375 C15.77307018 37.93378134 14.10608953 36.93428822 12.4375 35.9375 C11.076693 34.7388204 9.74381738 33.50784076 8.4375 32.25 C3.16774698 27.46818707 -5.25341922 19.9375 -12.5625 19.9375 C-12.5625 19.2775 -12.5625 18.6175 -12.5625 17.9375 C-18.14532119 15.59571259 -23.36003082 15.57054388 -29.3125 15.5625 C-30.2509375 15.53800781 -31.189375 15.51351563 -32.15625 15.48828125 C-39.05996887 15.45967468 -44.35462945 16.95197098 -50.5625 19.9375 Z " fill="#F7F4E4" transform="translate(286.5625,243.0625)"/>
<path d="M0 0 C10.5494909 7.00840304 16.94592728 15.4826131 20.375 27.75 C23.49846491 46.96032993 22.34193284 65.24615565 11.375 81.75 C4.15884332 90.22656025 -6.47365273 96.06891931 -17.5625 97.125 C-28.37101529 96.94722837 -38.1710987 91.24219189 -45.625 83.75 C-55.93550592 71.78763486 -62.54013485 56.53591047 -61.90625 40.50390625 C-60.38253971 25.58424296 -56.71640545 12.0890057 -44.66796875 2.1328125 C-30.36144097 -8.22975356 -14.91526683 -9.04263452 0 0 Z " fill="#F7F4E5" transform="translate(207.625,69.25)"/>
<path d="M0 0 C10.63451882 7.76902167 17.23340035 18.13640539 20 31 C20.39057332 34.8247975 20.42125691 38.5956066 20.375 42.4375 C20.38660156 43.39720703 20.39820313 44.35691406 20.41015625 45.34570312 C20.37083689 55.07724378 18.3941845 63.65343196 13.125 71.875 C12.13886719 73.44894531 12.13886719 73.44894531 11.1328125 75.0546875 C8.97507276 78.03442333 6.66761837 80.47391122 4 83 C3.484375 83.52464844 2.96875 84.04929687 2.4375 84.58984375 C-4.62478809 91.21073884 -13.36226686 95.31193788 -23.0625 95.6875 C-32.75207079 95.21326072 -41.17758138 91.74458399 -48.19140625 85.0078125 C-58.88744947 73.13358741 -63.39592098 59.68210531 -63.375 43.875 C-63.37628906 42.86687256 -63.37757813 41.85874512 -63.37890625 40.82006836 C-63.26389161 32.65468234 -61.97092404 25.65278201 -59 18 C-58.34 18 -57.68 18 -57 18 C-56.85111328 16.88625 -56.85111328 16.88625 -56.69921875 15.75 C-55.03780175 9.21571189 -48.26037951 3.81635376 -43 0 C-29.05719633 -7.82481669 -13.63832982 -9.49180591 0 0 Z " fill="#F5F3E6" transform="translate(347,70)"/>
<path d="M0 0 C1.29106894 0.88793925 2.56204379 1.80572546 3.8125 2.75 C4.48023438 3.25402344 5.14796875 3.75804687 5.8359375 4.27734375 C16.46900574 12.93453533 22.05059039 24.23104873 23.8125 37.75 C24.85849537 52.95688405 23.69587177 65.93540632 13.9453125 78.3125 C7.09381317 86.14278495 -1.70059276 92.97575583 -12.4140625 93.953125 C-23.50501683 94.16988632 -31.70977796 90.90040193 -40.1875 83.75 C-42.73392808 81.22834262 -44.98501597 78.57369747 -47.1875 75.75 C-47.64898437 75.20859375 -48.11046875 74.6671875 -48.5859375 74.109375 C-52.71428408 68.95519685 -54.38856904 63.02553336 -56.1875 56.75 C-56.41566406 56.03199219 -56.64382812 55.31398437 -56.87890625 54.57421875 C-60.32036891 42.18013993 -59.31120162 26.704968 -53.6875 15.1875 C-47.90962112 5.23827441 -39.3598791 -0.5935633 -28.8125 -4.5 C-18.86043828 -6.55904725 -8.81816563 -5.22877531 0 0 Z " fill="#F4F1E2" transform="translate(99.1875,170.25)"/>
<path d="M0 0 C11.81278885 6.01889718 19.31684449 16.82162721 23.4609375 29.25390625 C24.58757382 45.48600439 25.17061585 64.4997805 14.4140625 77.78125 C6.16433197 87.20753605 -3.44437154 95.15665723 -16.4140625 96.56640625 C-25.7881576 96.38766291 -35.54386837 92.41077653 -42.5390625 86.25390625 C-54.84282151 73.26519571 -58.24539211 59.37674681 -57.9140625 42.015625 C-57.58099935 34.70132022 -55.8913693 28.81350912 -52.5390625 22.25390625 C-52.04277344 21.27292969 -51.54648437 20.29195312 -51.03515625 19.28125 C-40.71611442 1.20427793 -19.77595217 -8.32213823 0 0 Z " fill="#FDD3BF" transform="translate(448.5390625,167.74609375)"/>
<path d="M0 0 C0.98613281 -0.02900391 1.97226562 -0.05800781 2.98828125 -0.08789062 C17.53322889 -0.2124521 28.1519187 7.44258407 38.46875 17.04296875 C49.71839594 28.23482541 56.95783805 44.46926106 57.75 60.3125 C57.81445312 61.4984375 57.87890625 62.684375 57.9453125 63.90625 C58.6808775 83.91460521 51.35520847 102.81158817 38.43359375 118.04296875 C27.63114434 129.50431556 12.85742594 137.11710814 -3.0234375 137.65576172 C-19.05965721 137.89094996 -31.19045659 132.21929851 -42.8125 121.25 C-57.50809145 106.32021586 -62.47749134 87.27441161 -62.50317383 66.77978516 C-62.41377905 59.3006602 -61.27782858 52.53194526 -59.25 45.3125 C-59.0334375 44.49652344 -58.816875 43.68054688 -58.59375 42.83984375 C-53.89414057 26.97866194 -42.44125059 13.61908532 -28.25 5.3125 C-18.91801384 1.03897363 -10.15372797 0.09800896 0 0 Z M-20.25 22.3125 C-20.94222656 22.67472656 -21.63445312 23.03695312 -22.34765625 23.41015625 C-28.75137854 27.05003694 -34.16949475 32.19174212 -38.25 38.3125 C-38.25 39.6325 -38.25 40.9525 -38.25 42.3125 C-38.91 42.3125 -39.57 42.3125 -40.25 42.3125 C-46.48422385 58.37119268 -46.9371193 78.22483444 -40.03125 94.1171875 C-34.15529018 105.90175137 -26.44232201 113.35135996 -14.25 118.3125 C-6.24530591 120.98073136 1.56802242 120.26057163 9.09716797 116.75439453 C20.28576181 111.04379478 26.33041571 105.21940565 32.75 94.3125 C33.16507812 93.66925781 33.58015625 93.02601563 34.0078125 92.36328125 C38.92891145 84.5442018 39.09214925 75.85872134 39.0625 66.875 C39.07861328 65.90240234 39.09472656 64.92980469 39.11132812 63.92773438 C39.12004427 50.87966045 34.41468755 39.05136752 25.4375 29.4375 C16.04432495 20.76524583 6.49658188 17.71351613 -6.0078125 17.99609375 C-11.33644203 18.27673334 -15.60381576 19.71234185 -20.25 22.3125 Z " fill="#2F373C" transform="translate(328.25,45.6875)"/>
<path d="M0 0 C15.3799277 10.39486393 25.60968973 24.7656506 29.375 42.875 C33.76907785 66.57855219 29.53341743 89.09650052 16.2421875 109.08203125 C7.61315863 120.38636836 -4.83350358 126.81596566 -18.625 129.875 C-34.26556032 131.60033759 -46.80137269 128.89482994 -59.5625 119.5 C-60.93769752 118.31565689 -62.29210648 117.10675958 -63.625 115.875 C-64.37007812 115.23175781 -65.11515625 114.58851563 -65.8828125 113.92578125 C-75.0337653 105.53482284 -80.04930454 94.84629061 -84.5625 83.5 C-85.00456787 82.39507202 -85.00456787 82.39507202 -85.45556641 81.26782227 C-91.87694171 64.34064963 -89.54290648 43.42422459 -82.8125 26.875 C-73.99832094 9.34953113 -59.99564309 -1.02665209 -41.625 -7.125 C-26.97398644 -11.25571502 -12.76057923 -7.45864842 0 0 Z M-58.625 22.875 C-60.91200114 25.73982097 -62.85570072 28.66711158 -64.625 31.875 C-65.13804687 32.79539062 -65.65109375 33.71578125 -66.1796875 34.6640625 C-67.79772286 38.25872484 -68.64089797 41.76732162 -69.3125 45.625 C-69.4369751 46.33599854 -69.5614502 47.04699707 -69.68969727 47.77954102 C-72.42406101 64.2100206 -68.87127468 79.96769341 -59.625 93.875 C-52.87826145 103.2232352 -43.08635522 110.5662378 -31.625 112.875 C-22.2817932 114.2193463 -13.98966937 110.68061291 -6.3125 105.5625 C4.12149572 97.74936576 10.45698536 86.82032016 12.375 73.875 C12.63495506 70.22338001 12.65547519 66.59706246 12.625 62.9375 C12.63273437 62.01259766 12.64046875 61.08769531 12.6484375 60.13476562 C12.60760589 45.56808939 8.8518389 32.64992555 -1.40234375 22.03515625 C-10.09216887 13.91399045 -19.54429609 9.37846086 -31.4609375 9.5390625 C-41.99860083 10.65787614 -51.27220735 15.31909153 -58.625 22.875 Z " fill="#2F383C" transform="translate(216.625,53.125)"/>
<path d="M0 0 C0.91813477 -0.01015137 1.83626953 -0.02030273 2.78222656 -0.03076172 C18.06934806 0.16368214 29.95469254 7.40387315 40.75 17.75 C56.8907178 34.81643544 61.55818308 53.23679073 61.17578125 76.0625 C60.56466072 93.36500716 52.2534767 108.95269768 40.26171875 121.23828125 C29.23284218 131.40073217 14.17503208 134.85414776 -0.515625 134.71875 C-15.67523109 133.53748199 -28.40865614 127.32216353 -38.34375 115.8828125 C-52.39921254 98.12094374 -59.22399579 78.10665452 -57.125 55.4375 C-56.56460131 52.18932927 -55.84815992 49.13553536 -54.890625 45.984375 C-54.18816338 43.64761493 -53.83408898 41.47145737 -53.5 39.0625 C-50.66441079 26.25586351 -38.86415593 13.88952509 -28.25 7.0625 C-26.5622121 6.14849794 -24.8530796 5.27282549 -23.125 4.4375 C-21.87589844 3.81875 -21.87589844 3.81875 -20.6015625 3.1875 C-13.81523703 0.38741155 -7.24604497 0.05689344 0 0 Z M-31.5546875 34.1640625 C-39.75387454 46.03452731 -40.42164569 60.16160649 -38.81640625 74.12109375 C-38.36880005 76.27990241 -37.78424085 78.33402631 -37.125 80.4375 C-36.89167969 81.3553125 -36.65835938 82.273125 -36.41796875 83.21875 C-33.30169691 94.26088218 -26.50125872 103.77320849 -17.125 110.4375 C-16.48820312 110.89769531 -15.85140625 111.35789062 -15.1953125 111.83203125 C-7.76512013 116.84813388 -0.04282925 118.46800471 8.875 117.4375 C21.12255027 114.66909808 30.08271348 106.74366274 36.875 96.4375 C41.68449692 88.46187658 43.25156942 80.46563249 43.1875 71.25 C43.18331055 70.42137451 43.17912109 69.59274902 43.17480469 68.73901367 C42.89432971 53.33825175 38.24411305 41.72749343 27.875 30.4375 C19.11616751 22.15211792 8.67076742 17.99901648 -3.37890625 18.16015625 C-14.46818238 19.28012582 -24.56744888 25.68187981 -31.5546875 34.1640625 Z " fill="#2F373C" transform="translate(80.125,146.5625)"/>
<path d="M0 0 C1.10472656 0.55042969 2.20945312 1.10085937 3.34765625 1.66796875 C4.22292969 2.10753906 5.09820312 2.54710937 6 3 C6 3.66 6 4.32 6 5 C6.57234375 5.25136719 7.1446875 5.50273437 7.734375 5.76171875 C17.55159845 11.12733915 25.19977778 22.62048247 28.3515625 33.1796875 C29.39733363 37.09319744 30.24188784 41.02098196 31 45 C31.19078125 45.97582031 31.3815625 46.95164063 31.578125 47.95703125 C34.30539905 67.62875793 30.44722205 87.4800582 19.015625 103.83984375 C17.09347843 106.31702877 15.09634705 108.66933072 13 111 C12.44699219 111.64582031 11.89398438 112.29164063 11.32421875 112.95703125 C2.43947771 122.6899576 -12.14041546 128.36703902 -25.1640625 129.203125 C-40.14299305 129.40599991 -53.75232739 125.23118354 -65 115 C-77.5602293 102.76006799 -84.98494155 85.44770173 -85.39501953 68.11206055 C-85.53990387 54.94007592 -85.22542863 43.75547958 -79 32 C-78.64083496 31.31131836 -78.28166992 30.62263672 -77.91162109 29.91308594 C-72.70230438 20.2199964 -66.7012541 12.82478556 -58 6 C-56.95585937 5.17435547 -56.95585937 5.17435547 -55.890625 4.33203125 C-53.13384618 2.38975526 -50.10926127 1.28659087 -47 0 C-46.01 -0.515625 -45.02 -1.03125 -44 -1.5625 C-30.36087099 -8.09791599 -13.21141118 -6.8070406 0 0 Z M-55.296875 27.54296875 C-66.64765561 42.32885402 -68.12820014 56.97534366 -67 75 C-66.3025261 79.18484338 -65.10553676 82.33355865 -63 86 C-62.67789551 86.56541504 -62.35579102 87.13083008 -62.02392578 87.71337891 C-55.51334904 98.95197935 -48.36085613 106.98498877 -35.5 110.75 C-25.72218374 113.15459883 -18.36218159 111.46282991 -9.57421875 106.6796875 C1.28416014 99.81584178 8.88013137 90.96535493 12.421875 78.58984375 C14.01276326 71.46309431 14.24496559 64.45870513 14.3125 57.1875 C14.35600586 55.64352539 14.35600586 55.64352539 14.40039062 54.06835938 C14.50720407 41.07820106 8.99203941 31.50478897 0.2421875 22.11328125 C-7.9888516 14.51392655 -17.52717612 12.6067595 -28.40234375 12.73046875 C-38.9508124 13.5207449 -48.31889075 19.81734333 -55.296875 27.54296875 Z " fill="#2F383D" transform="translate(458,152)"/>
<path d="M0 0 C15.23810424 6.45007894 35.88395973 7.53347098 51.625 1.89453125 C53.81051774 0.93098373 55.93928191 -0.09423263 58.0625 -1.1875 C64.25526148 -4.22545846 70.29033647 -5.24228834 77.0625 -6.1875 C76.52930551 -2.72766022 75.83826251 -0.45090395 73.6875 2.3125 C72.16052476 4.31395908 70.94464298 6.04821403 69.8125 8.3125 C64.42972795 16.00217436 56.03936385 20.07634492 47.0625 21.8125 C45.90427734 22.11220703 45.90427734 22.11220703 44.72265625 22.41796875 C31.05036982 25.4813833 11.81608785 23.94866019 -0.9375 17.8125 C-1.23785156 17.1421875 -1.53820312 16.471875 -1.84765625 15.78125 C-2.85091456 13.42891972 -2.85091456 13.42891972 -6.16796875 12.8359375 C-7.48397859 12.60221628 -8.80332556 12.3867089 -10.125 12.1875 C-14.0106506 11.52891515 -17.75163835 10.86632328 -21.5390625 9.76953125 C-41.75216881 4.07733465 -66.83061693 8.13256543 -85.203125 17.47265625 C-87.9375 18.8125 -87.9375 18.8125 -89.9375 18.8125 C-90.4325 20.2975 -90.4325 20.2975 -90.9375 21.8125 C-100.57687925 25.46236205 -114.49580041 28.05285438 -124.25 24.0625 C-125.01957031 23.68996094 -125.78914063 23.31742187 -126.58203125 22.93359375 C-129.91086941 21.34922136 -133.3675412 20.42804213 -136.90625 19.42578125 C-138.9375 18.8125 -138.9375 18.8125 -140.9375 17.8125 C-140.9375 17.1525 -140.9375 16.4925 -140.9375 15.8125 C-141.63875 15.585625 -142.34 15.35875 -143.0625 15.125 C-149.87009073 12.01718684 -155.09931316 6.16027054 -158.9375 -0.1875 C-158.9375 -1.5075 -158.9375 -2.8275 -158.9375 -4.1875 C-152.54999934 -3.81899035 -147.65193961 -1.92298947 -141.80078125 0.60546875 C-124.78629718 7.77801388 -99.66012061 6.51079004 -82.5859375 -0.09765625 C-81.83570313 -0.41605469 -81.08546875 -0.73445313 -80.3125 -1.0625 C-54.12576804 -11.83790167 -25.99577145 -11.00501261 0 0 Z " fill="#F7BEAB" transform="translate(298.9375,429.1875)"/>
<path d="M0 0 C0 0.66 0 1.32 0 2 C1.051875 2.1546875 1.051875 2.1546875 2.125 2.3125 C9.38733044 4.04914424 12.40209337 7.38046408 16.58203125 13.33203125 C18.13760613 16.2589118 18.63171446 18.72369359 19 22 C19.66 22 20.32 22 21 22 C22.20921058 25.62763173 22.18405415 28.97334317 22.1875 32.75 C22.19974609 33.4409375 22.21199219 34.131875 22.22460938 34.84375 C22.25002423 43.85755215 19.13748597 49.84201595 14 57 C13.53464844 57.71800781 13.06929688 58.43601563 12.58984375 59.17578125 C8.38330794 65.39770468 3.25810143 68.84676419 -4 70.8125 C-4.99 70.874375 -5.98 70.93625 -7 71 C-7.68835938 71.061875 -8.37671875 71.12375 -9.0859375 71.1875 C-15.13825026 71.51800172 -18.78463892 70.0343919 -24 67 C-24 66.34 -24 65.68 -24 65 C-24.99 64.67 -25.98 64.34 -27 64 C-35.67881915 54.20133322 -38.62916259 45.83115592 -38.35546875 32.86328125 C-37.42873344 22.79139966 -34.28385859 13.84712034 -26.8125 6.875 C-18.28325976 0.03721246 -10.78358672 -0.55221781 0 0 Z " fill="#FDD3BE" transform="translate(334,83)"/>
<path d="M0 0 C0.75893555 0.00161133 1.51787109 0.00322266 2.29980469 0.00488281 C8.10625033 0.13246951 11.83234551 1.0137392 16.6875 4.375 C17.55375 4.91125 18.42 5.4475 19.3125 6 C28.27150015 14.95900015 30.15934341 25.1938454 30.19604492 37.32421875 C29.99618193 46.78604539 27.33101386 52.98409868 21.25 60.3125 C20.404375 60.993125 19.55875 61.67375 18.6875 62.375 C17.90246094 63.01501953 17.90246094 63.01501953 17.1015625 63.66796875 C10.03642261 69.11867622 3.76732212 71.15802582 -5.203125 70.15625 C-12.85216951 68.23437952 -19.69300367 63.1836467 -24.13671875 56.72265625 C-30.9790008 44.65901011 -31.18809813 31.72414929 -27.93481445 18.3371582 C-25.68100598 11.23089744 -19.45533706 6.12895598 -13.3125 2.375 C-8.95833815 0.1785155 -4.79305536 -0.01047891 0 0 Z " fill="#FDD3BF" transform="translate(189.3125,83.625)"/>
<path d="M0 0 C10.6837834 6.05414393 15.64227732 12.90431238 19.07128906 24.46240234 C21.65714787 34.9129864 19.82123165 45.28849454 14.6015625 54.60546875 C12.70318937 56.75362782 11.01898596 58.01216693 8.6015625 59.60546875 C8.1065625 60.59546875 8.1065625 60.59546875 7.6015625 61.60546875 C-0.53772342 65.60243952 -8.09877112 68.38642706 -16.99609375 65.87109375 C-22.23962244 63.98682129 -25.7646776 61.92669674 -29.3984375 57.60546875 C-29.97464844 57.01765625 -30.55085938 56.42984375 -31.14453125 55.82421875 C-39.08194417 47.50726218 -39.86210877 39.53365069 -39.69921875 28.375 C-39.41225669 24.77865734 -38.70463689 21.95162893 -37.3984375 18.60546875 C-36.7384375 18.60546875 -36.0784375 18.60546875 -35.3984375 18.60546875 C-35.3984375 17.42984375 -35.3984375 16.25421875 -35.3984375 15.04296875 C-34.81731332 10.02742008 -32.08325618 7.92452278 -28.30859375 4.85546875 C-26.3984375 3.60546875 -26.3984375 3.60546875 -24.3984375 3.60546875 C-24.3984375 2.94546875 -24.3984375 2.28546875 -24.3984375 1.60546875 C-16.9203236 -2.66773919 -7.99527764 -3.28082082 0 0 Z " fill="#FDD0BB" transform="translate(92.3984375,185.39453125)"/>
<path d="M0 0 C11.81278885 6.01889718 19.31684449 16.82162721 23.4609375 29.25390625 C24.58757382 45.48600439 25.17061585 64.4997805 14.4140625 77.78125 C6.16433197 87.20753605 -3.44437154 95.15665723 -16.4140625 96.56640625 C-25.7881576 96.38766291 -35.54386837 92.41077653 -42.5390625 86.25390625 C-54.84282151 73.26519571 -58.24539211 59.37674681 -57.9140625 42.015625 C-57.58099935 34.70132022 -55.8913693 28.81350912 -52.5390625 22.25390625 C-52.04277344 21.27292969 -51.54648437 20.29195312 -51.03515625 19.28125 C-40.71611442 1.20427793 -19.77595217 -8.32213823 0 0 Z M-26.5390625 20.25390625 C-27.37308594 20.57101563 -28.20710938 20.888125 -29.06640625 21.21484375 C-36.50646599 24.34131435 -41.5688798 33.07596474 -44.5390625 40.25390625 C-47.57089486 49.76472284 -45.96125732 59.96672536 -42.0234375 68.86328125 C-40.44645297 71.40305633 -38.92635243 72.51595918 -36.5390625 74.25390625 C-36.22839844 74.90875 -35.91773438 75.56359375 -35.59765625 76.23828125 C-33.28765823 80.63665386 -27.97757948 82.51685005 -23.5390625 84.25390625 C-19.75545979 84.85431379 -16.3324316 84.69051226 -12.5390625 84.25390625 C-11.79011719 84.22683594 -11.04117188 84.19976562 -10.26953125 84.171875 C-2.26348385 83.32078167 3.4383188 77.04981304 8.4609375 71.25390625 C10.36493993 68.00064777 11.51255667 64.88746172 12.4609375 61.25390625 C12.81929687 60.15949219 13.17765625 59.06507813 13.546875 57.9375 C16.00461762 48.03300729 14.3252597 37.68999397 9.3359375 28.88671875 C4.89313297 22.64828073 -0.04164795 18.18154806 -7.5390625 16.25390625 C-11.02583778 15.86668219 -11.02583778 15.86668219 -14.6015625 15.87890625 C-16.38240234 15.83636719 -16.38240234 15.83636719 -18.19921875 15.79296875 C-22.17274066 16.34136125 -23.57753097 17.63764358 -26.5390625 20.25390625 Z " fill="#F5F2E4" transform="translate(448.5390625,167.74609375)"/>
<path d="M0 0 C-1.49801352 3.61477175 -3.57537417 5.68620463 -6.5 8.25 C-7.2940625 8.95640625 -8.088125 9.6628125 -8.90625 10.390625 C-11 12 -11 12 -13 12 C-13 12.66 -13 13.32 -13 14 C-18.13575381 16.5678769 -26.37616919 15.86829083 -31.703125 14.10546875 C-33.875 13 -33.875 13 -37 11 C-37 9.68 -37 8.36 -37 7 C-36.0821875 6.95101562 -35.164375 6.90203125 -34.21875 6.8515625 C-26.33777371 6.45678407 -26.33777371 6.45678407 -18.625 4.9375 C-14.52053799 3.8760012 -11.21653972 3.8494093 -7 4 C-7 3.34 -7 2.68 -7 2 C-2.25 0 -2.25 0 0 0 Z " fill="#F7C1AC" transform="translate(456,236)"/>
<path d="M0 0 C0 3 0 3 -1.43359375 4.68359375 C-7.72138721 10.18694514 -13.7715192 13.46823665 -22 15 C-22.77214844 15.19980469 -23.54429687 15.39960938 -24.33984375 15.60546875 C-38.36502909 18.74795389 -56.80687039 16.82903997 -70 11 C-70.66 10.01 -71.32 9.02 -72 8 C-62.84498778 9.7007335 -62.84498778 9.7007335 -59 11.0625 C-55.44667411 12.17291434 -52.06777539 12.47146263 -48.3671875 12.75390625 C-46 13 -46 13 -44.09765625 13.5078125 C-31.26812656 16.51809321 -18.3968873 12.22829432 -7.1015625 6.3046875 C-4.23242817 4.52347771 -2.19245245 2.5578612 0 0 Z " fill="#F6D3C3" transform="translate(368,436)"/>
<path d="M0 0 C0.66 0.33 1.32 0.66 2 1 C-0.64 3.64 -3.28 6.28 -6 9 C-6.99 8.67 -7.98 8.34 -9 8 C-6.03 5.36 -3.06 2.72 0 0 Z M-11 9 C-10.34 9.33 -9.68 9.66 -9 10 C-9.41041031 10.4081897 -9.82082062 10.81637939 -10.2436676 11.23693848 C-14.54615602 15.51716348 -18.84500918 19.80101542 -23.1418457 24.08691406 C-24.74216818 25.68223301 -26.3433902 27.27665014 -27.94555664 28.87011719 C-30.2590937 31.17141331 -32.56928899 33.47602071 -34.87890625 35.78125 C-35.9402755 36.83487732 -35.9402755 36.83487732 -37.02308655 37.90979004 C-41.0569793 41.94323485 -44.88320383 46.07762373 -48.5589447 50.44128418 C-50 52 -50 52 -52 53 C-50.34110018 48.89745133 -47.43318498 45.97529063 -44.4375 42.8125 C-43.56134033 41.87942017 -43.56134033 41.87942017 -42.66748047 40.92749023 C-32.35656046 30.05030425 -21.63750077 19.55605936 -11 9 Z " fill="#F7DBCA" transform="translate(222,272)"/>
<path d="M0 0 C35.51766894 -0.82207068 35.51766894 -0.82207068 41.8828125 4.60546875 C42.25148438 5.06566406 42.62015625 5.52585937 43 6 C39.51520971 5.57329099 36.28119538 5.0918189 32.9375 4 C22.36357877 0.86785852 10.8232188 2.01469297 0 3 C0 2.01 0 1.02 0 0 Z " fill="#F7D5C4" transform="translate(245,435)"/>
<path d="M0 0 C-10.2885448 3.60099068 -23.28828932 7.58680065 -33.9375 3.5625 C-34.948125 3.046875 -35.95875 2.53125 -37 2 C-37 1.67 -37 1.34 -37 1 C-36.39639648 1.01047363 -35.79279297 1.02094727 -35.17089844 1.03173828 C-20.06148073 1.37600142 -20.06148073 1.37600142 -5.14453125 -0.66015625 C-3 -1 -3 -1 0 0 Z " fill="#F7D6C6" transform="translate(209,450)"/>
<path d="M0 0 C4.62 0 9.24 0 14 0 C14 0.66 14 1.32 14 2 C15.65 2 17.3 2 19 2 C19.33 2.99 19.66 3.98 20 5 C22.07638672 5.73175115 22.07638672 5.73175115 24.5 6.0625 C26.96875 6.47265625 26.96875 6.47265625 29 7 C29.33 7.66 29.66 8.32 30 9 C24.57386105 7.54546465 19.17013295 6.06644555 13.8125 4.375 C10.66732988 3.40532295 7.7114301 2.76955341 4.4375 2.4375 C3.303125 2.293125 2.16875 2.14875 1 2 C0.67 1.34 0.34 0.68 0 0 Z " fill="#C8C7C3" transform="translate(259,444)"/>
<path d="M0 0 C0 4.53644916 -2.06507868 7.01008331 -5.125 10.25 C-6.07375 11.1575 -7.0225 12.065 -8 13 C-9.60686501 14.60146378 -11.21084967 16.20582094 -12.8125 17.8125 C-14.20833333 19.20833333 -15.60416667 20.60416667 -17 22 C-17.66 21.67 -18.32 21.34 -19 21 C-16.96227334 18.62159516 -14.91909749 16.24793056 -12.875 13.875 C-12.30523437 13.20984375 -11.73546875 12.5446875 -11.1484375 11.859375 C-7.58468399 7.7286607 -3.90509833 3.81014153 0 0 Z " fill="#4B5351" transform="translate(151,288)"/>
<path d="M0 0 C-6.01544812 4.01029875 -13.96545193 3.57804782 -21 3 C-23.3671875 1.98828125 -23.3671875 1.98828125 -25 1 C-16.65667456 -0.19190363 -8.40676978 -0.09283549 0 0 Z " fill="#B8B6AD" transform="translate(346,463)"/>
<path d="M0 0 C0 3 0 3 -1.43359375 4.68359375 C-7.36252125 9.87284998 -13.29470468 13.22986459 -21 15 C-21 14.34 -21 13.68 -21 13 C-19.90300781 12.48050781 -18.80601562 11.96101563 -17.67578125 11.42578125 C-16.22109057 10.72189866 -14.76667807 10.01744098 -13.3125 9.3125 C-12.59126953 8.97283203 -11.87003906 8.63316406 -11.12695312 8.28320312 C-6.57597678 6.05966674 -3.36784318 3.79297526 0 0 Z " fill="#F8DFCF" transform="translate(368,436)"/>
<path d="M0 0 C-5.30426085 3.5361739 -10.64764679 3.12967778 -16.8125 3.0625 C-17.99489258 3.05573242 -17.99489258 3.05573242 -19.20117188 3.04882812 C-21.13414761 3.03711312 -23.06708393 3.01917998 -25 3 C-25 2.67 -25 2.34 -25 2 C-16.58481953 0.47983837 -8.5511272 -0.27733386 0 0 Z " fill="#C6C6C2" transform="translate(201,463)"/>
<path d="M0 0 C0 3 0 3 -1.27734375 4.5 C-1.82519531 4.995 -2.37304688 5.49 -2.9375 6 C-5.27535925 8.12231195 -5.96275884 8.88827651 -7 12 C-8.87617698 13.84499398 -10.92737609 15.3683599 -13 17 C-13.66 16.67 -14.32 16.34 -15 16 C-10.23991693 10.4069024 -5.25404324 5.13122145 0 0 Z " fill="#D0DAD4" transform="translate(174,289)"/>
<path d="M0 0 C0.33 0.99 0.66 1.98 1 3 C-2.63 6.63 -6.26 10.26 -10 14 C-10.66 13.67 -11.32 13.34 -12 13 C-10.56354149 11.39490066 -9.12579294 9.79095576 -7.6875 8.1875 C-6.88699219 7.29417969 -6.08648437 6.40085937 -5.26171875 5.48046875 C-3.54775419 3.60073214 -1.82122396 1.77407253 0 0 Z " fill="#505657" transform="translate(164,274)"/>
<path d="M0 0 C0.33 0.66 0.66 1.32 1 2 C-1.14187656 6.53573859 -4.4232965 9.5822611 -8 13 C-8.66 12.67 -9.32 12.34 -10 12 C-6.7 8.04 -3.4 4.08 0 0 Z " fill="#4E5454" transform="translate(128,314)"/>
<path d="M0 0 C2.31 0 4.62 0 7 0 C7 0.66 7 1.32 7 2 C11.29 2.66 15.58 3.32 20 4 C20 4.33 20 4.66 20 5 C12.45709983 5.4946164 6.941085 3.90617391 0 1 C0 0.67 0 0.34 0 0 Z " fill="#ACB0AC" transform="translate(174,161)"/>
<path d="M0 0 C0 3 0 3 -1.57421875 4.9375 C-8.61165049 11.80582524 -8.61165049 11.80582524 -13 14 C-13.33 13.34 -13.66 12.68 -14 12 C-12.98679687 11.20335937 -12.98679687 11.20335937 -11.953125 10.390625 C-11.06109375 9.68421875 -10.1690625 8.9778125 -9.25 8.25 C-8.36828125 7.55390625 -7.4865625 6.8578125 -6.578125 6.140625 C-4.24152752 4.20054103 -2.1061438 2.18487814 0 0 Z " fill="#F9E0CB" transform="translate(457,236)"/>
<path d="M0 0 C0.66 0.33 1.32 0.66 2 1 C-1.96 4.96 -5.92 8.92 -10 13 C-10 8.41771462 -7.08388033 6.1816619 -4 3 C-1.625 1.0625 -1.625 1.0625 0 0 Z " fill="#D1D4CE" transform="translate(165,70)"/>
<path d="M0 0 C0.80859375 1.671875 0.80859375 1.671875 1 4 C-1.08984375 6.578125 -1.08984375 6.578125 -3.9375 9.25 C-4.87464844 10.14203125 -5.81179687 11.0340625 -6.77734375 11.953125 C-7.51082031 12.62859375 -8.24429688 13.3040625 -9 14 C-9.66 13.67 -10.32 13.34 -11 13 C-10.06027344 11.96939453 -10.06027344 11.96939453 -9.1015625 10.91796875 C-8.28429687 10.01691406 -7.46703125 9.11585938 -6.625 8.1875 C-5.81289062 7.29417969 -5.00078125 6.40085937 -4.1640625 5.48046875 C-1.90927093 3.00367326 -1.90927093 3.00367326 0 0 Z " fill="#C3C3B6" transform="translate(129,256)"/>
<path d="M0 0 C1.27230469 0.00902344 2.54460937 0.01804687 3.85546875 0.02734375 C5.31919922 0.04474609 5.31919922 0.04474609 6.8125 0.0625 C6.8125 0.3925 6.8125 0.7225 6.8125 1.0625 C4.3556099 1.45105926 1.89808167 1.82380088 -0.5625 2.1875 C-1.61050781 2.35572266 -1.61050781 2.35572266 -2.6796875 2.52734375 C-4.50537914 2.79066466 -6.3473762 2.9343116 -8.1875 3.0625 C-8.8475 2.4025 -9.5075 1.7425 -10.1875 1.0625 C-6.62704823 -0.12431726 -3.74941663 -0.03439832 0 0 Z " fill="#F5DBC9" transform="translate(327.1875,82.9375)"/>
<path d="M0 0 C0.66 0.33 1.32 0.66 2 1 C-0.97 3.97 -3.94 6.94 -7 10 C-7.66 9.67 -8.32 9.34 -9 9 C-6.31941902 5.42589203 -3.57410797 2.68058098 0 0 Z " fill="#C8CDC5" transform="translate(411,172)"/>
<path d="M0 0 C2.31 0 4.62 0 7 0 C-0.74725275 5.16483516 -0.74725275 5.16483516 -4.375 4.6875 C-4.91125 4.460625 -5.4475 4.23375 -6 4 C-5.34 4 -4.68 4 -4 4 C-4 3.34 -4 2.68 -4 2 C-2.68 2 -1.36 2 0 2 C0 1.34 0 0.68 0 0 Z " fill="#ABB4A9" transform="translate(236,217)"/>
<path d="M0 0 C-1.39332574 3.36720387 -2.9789286 4.9859524 -6 7 C-5.6875 4.625 -5.6875 4.625 -5 2 C-2 0 -2 0 0 0 Z " fill="#F8C7B6" transform="translate(347,139)"/>
<path d="M0 0 C2.97 0 5.94 0 9 0 C5.31265242 2.45823172 2.30300029 3.01242616 -2 4 C-1.34 2.68 -0.68 1.36 0 0 Z " fill="#4F5759" transform="translate(65,165)"/>
<path d="M0 0 C0 0.99 0 1.98 0 3 C-2.375 4.75 -2.375 4.75 -5 6 C-5.66 5.67 -6.32 5.34 -7 5 C-2.25 0 -2.25 0 0 0 Z " fill="#D9DFD8" transform="translate(182,283)"/>
<path d="M0 0 C0.33 0.99 0.66 1.98 1 3 C-0.32 3.99 -1.64 4.98 -3 6 C-3.66 4.68 -4.32 3.36 -5 2 C-3.35 1.34 -1.7 0.68 0 0 Z " fill="#F8C0AC" transform="translate(103,239)"/>
<path d="M0 0 C2.29633824 3.44450737 2.54016485 5.93812283 3 10 C1 7 1 7 1 5 C0.34 5 -0.32 5 -1 5 C-0.67 3.35 -0.34 1.7 0 0 Z " fill="#484F4F" transform="translate(380,84)"/>
</svg>
